# Blender v2.91.0 OBJ File: ''
# www.blender.org
o Cylinder
v 0.000000 -1.000000 -1.000000
v 0.000000 1.000000 -1.000000
v 0.104528 -1.000000 -0.994522
v 0.104528 1.000000 -0.994522
v 0.207912 -1.000000 -0.978148
v 0.207912 1.000000 -0.978148
v 0.309017 -1.000000 -0.951057
v 0.309017 1.000000 -0.951057
v 0.406737 -1.000000 -0.913545
v 0.406737 1.000000 -0.913545
v 0.500000 -1.000000 -0.866025
v 0.500000 1.000000 -0.866025
v 0.587785 -1.000000 -0.809017
v 0.587785 1.000000 -0.809017
v 0.669131 -1.000000 -0.743145
v 0.669131 1.000000 -0.743145
v 0.743145 -1.000000 -0.669131
v 0.743145 1.000000 -0.669131
v 0.809017 -1.000000 -0.587785
v 0.809017 1.000000 -0.587785
v 0.866025 -1.000000 -0.500000
v 0.866025 1.000000 -0.500000
v 0.913545 -1.000000 -0.406737
v 0.913545 1.000000 -0.406737
v 0.951057 -1.000000 -0.309017
v 0.951057 1.000000 -0.309017
v 0.978148 -1.000000 -0.207912
v 0.978148 1.000000 -0.207912
v 0.994522 -1.000000 -0.104528
v 0.994522 1.000000 -0.104528
v 1.000000 -1.000000 0.000000
v 1.000000 1.000000 0.000000
v 0.994522 -1.000000 0.104529
v 0.994522 1.000000 0.104529
v 0.978148 -1.000000 0.207912
v 0.978148 1.000000 0.207912
v 0.951056 -1.000000 0.309017
v 0.951056 1.000000 0.309017
v 0.913545 -1.000000 0.406737
v 0.913545 1.000000 0.406737
v 0.866025 -1.000000 0.500000
v 0.866025 1.000000 0.500000
v 0.809017 -1.000000 0.587785
v 0.809017 1.000000 0.587785
v 0.743145 -1.000000 0.669131
v 0.743145 1.000000 0.669131
v 0.669131 -1.000000 0.743145
v 0.669131 1.000000 0.743145
v 0.587786 -1.000000 0.809017
v 0.587786 1.000000 0.809017
v 0.500000 -1.000000 0.866025
v 0.500000 1.000000 0.866025
v 0.406737 -1.000000 0.913545
v 0.406737 1.000000 0.913545
v 0.309018 -1.000000 0.951056
v 0.309018 1.000000 0.951056
v 0.207913 -1.000000 0.978147
v 0.207913 1.000000 0.978147
v 0.104529 -1.000000 0.994522
v 0.104529 1.000000 0.994522
v 0.000001 -1.000000 1.000000
v 0.000001 1.000000 1.000000
v -0.104527 -1.000000 0.994522
v -0.104527 1.000000 0.994522
v -0.207910 -1.000000 0.978148
v -0.207910 1.000000 0.978148
v -0.309016 -1.000000 0.951057
v -0.309016 1.000000 0.951057
v -0.406735 -1.000000 0.913546
v -0.406735 1.000000 0.913546
v -0.499999 -1.000000 0.866026
v -0.499999 1.000000 0.866026
v -0.587784 -1.000000 0.809018
v -0.587784 1.000000 0.809018
v -0.669129 -1.000000 0.743146
v -0.669129 1.000000 0.743146
v -0.743143 -1.000000 0.669132
v -0.743143 1.000000 0.669132
v -0.809016 -1.000000 0.587787
v -0.809016 1.000000 0.587787
v -0.866024 -1.000000 0.500002
v -0.866024 1.000000 0.500002
v -0.913544 -1.000000 0.406739
v -0.913544 1.000000 0.406739
v -0.951056 -1.000000 0.309019
v -0.951056 1.000000 0.309019
v -0.978147 -1.000000 0.207914
v -0.978147 1.000000 0.207914
v -0.994522 -1.000000 0.104531
v -0.994522 1.000000 0.104531
v -1.000000 -1.000000 0.000003
v -1.000000 1.000000 0.000003
v -0.994522 -1.000000 -0.104526
v -0.994522 1.000000 -0.104526
v -0.978148 -1.000000 -0.207909
v -0.978148 1.000000 -0.207909
v -0.951057 -1.000000 -0.309014
v -0.951057 1.000000 -0.309014
v -0.913547 -1.000000 -0.406734
v -0.913547 1.000000 -0.406734
v -0.866027 -1.000000 -0.499997
v -0.866027 1.000000 -0.499997
v -0.809019 -1.000000 -0.587782
v -0.809019 1.000000 -0.587782
v -0.743147 -1.000000 -0.669128
v -0.743147 1.000000 -0.669128
v -0.669133 -1.000000 -0.743142
v -0.669133 1.000000 -0.743142
v -0.587788 -1.000000 -0.809015
v -0.587788 1.000000 -0.809015
v -0.500003 -1.000000 -0.866023
v -0.500003 1.000000 -0.866023
v -0.406740 -1.000000 -0.913544
v -0.406740 1.000000 -0.913544
v -0.309021 -1.000000 -0.951055
v -0.309021 1.000000 -0.951055
v -0.207916 -1.000000 -0.978147
v -0.207916 1.000000 -0.978147
v -0.104533 -1.000000 -0.994521
v -0.104533 1.000000 -0.994521
vt 1.000000 1.000000
vt 0.983333 0.500000
vt 1.000000 0.500000
vt 0.983333 1.000000
vt 0.966667 0.500000
vt 0.966667 1.000000
vt 0.950000 0.500000
vt 0.950000 1.000000
vt 0.933333 0.500000
vt 0.933333 1.000000
vt 0.916667 0.500000
vt 0.916667 1.000000
vt 0.900000 0.500000
vt 0.900000 1.000000
vt 0.883333 0.500000
vt 0.883333 1.000000
vt 0.866667 0.500000
vt 0.866667 1.000000
vt 0.850000 0.500000
vt 0.850000 1.000000
vt 0.833333 0.500000
vt 0.833333 1.000000
vt 0.816667 0.500000
vt 0.816667 1.000000
vt 0.800000 0.500000
vt 0.800000 1.000000
vt 0.783334 0.500000
vt 0.783334 1.000000
vt 0.766667 0.500000
vt 0.766667 1.000000
vt 0.750000 0.500000
vt 0.750000 1.000000
vt 0.733334 0.500000
vt 0.733334 1.000000
vt 0.716667 0.500000
vt 0.716667 1.000000
vt 0.700000 0.500000
vt 0.700000 1.000000
vt 0.683334 0.500000
vt 0.683334 1.000000
vt 0.666667 0.500000
vt 0.666667 1.000000
vt 0.650000 0.500000
vt 0.650000 1.000000
vt 0.633334 0.500000
vt 0.633334 1.000000
vt 0.616667 0.500000
vt 0.616667 1.000000
vt 0.600000 0.500000
vt 0.600000 1.000000
vt 0.583334 0.500000
vt 0.583334 1.000000
vt 0.566667 0.500000
vt 0.566667 1.000000
vt 0.550000 0.500000
vt 0.550000 1.000000
vt 0.533334 0.500000
vt 0.533334 1.000000
vt 0.516667 0.500000
vt 0.516667 1.000000
vt 0.500000 0.500000
vt 0.500000 1.000000
vt 0.483334 0.500000
vt 0.483334 1.000000
vt 0.466667 0.500000
vt 0.466667 1.000000
vt 0.450000 0.500000
vt 0.450000 1.000000
vt 0.433334 0.500000
vt 0.433334 1.000000
vt 0.416667 0.500000
vt 0.416667 1.000000
vt 0.400000 0.500000
vt 0.400000 1.000000
vt 0.383334 0.500000
vt 0.383334 1.000000
vt 0.366667 0.500000
vt 0.366667 1.000000
vt 0.350000 0.500000
vt 0.350000 1.000000
vt 0.333334 0.500000
vt 0.333334 1.000000
vt 0.316667 0.500000
vt 0.316667 1.000000
vt 0.300000 0.500000
vt 0.300000 1.000000
vt 0.283334 0.500000
vt 0.283334 1.000000
vt 0.266667 0.500000
vt 0.266667 1.000000
vt 0.250000 0.500000
vt 0.250000 1.000000
vt 0.233334 0.500000
vt 0.233334 1.000000
vt 0.216667 0.500000
vt 0.216667 1.000000
vt 0.200000 0.500000
vt 0.200000 1.000000
vt 0.183334 0.500000
vt 0.183334 1.000000
vt 0.166667 0.500000
vt 0.166667 1.000000
vt 0.150000 0.500000
vt 0.150000 1.000000
vt 0.133334 0.500000
vt 0.133334 1.000000
vt 0.116667 0.500000
vt 0.116667 1.000000
vt 0.100000 0.500000
vt 0.100000 1.000000
vt 0.083334 0.500000
vt 0.083334 1.000000
vt 0.066667 0.500000
vt 0.066667 1.000000
vt 0.050000 0.500000
vt 0.050000 1.000000
vt 0.033334 0.500000
vt 0.391068 0.444164
vt 0.108931 0.444164
vt 0.071646 0.089408
vt 0.033334 1.000000
vt 0.016667 0.500000
vt 0.016667 1.000000
vt 0.000000 0.500000
vt 0.629999 0.457846
vt 0.910591 0.428355
vt 0.910591 0.071645
vt 0.299899 0.484755
vt 0.275087 0.488685
vt 0.250000 0.490000
vt 0.224912 0.488685
vt 0.200100 0.484755
vt 0.175835 0.478253
vt 0.152382 0.469251
vt 0.129999 0.457846
vt 0.089408 0.428354
vt 0.071645 0.410591
vt 0.055835 0.391068
vt 0.042153 0.369999
vt 0.030749 0.347616
vt 0.021746 0.324163
vt 0.015244 0.299898
vt 0.011315 0.275086
vt 0.010000 0.249999
vt 0.011315 0.224913
vt 0.015245 0.200101
vt 0.021747 0.175835
vt 0.030749 0.152383
vt 0.042154 0.130000
vt 0.055836 0.108931
vt 0.089409 0.071645
vt 0.108932 0.055836
vt 0.130000 0.042154
vt 0.152384 0.030749
vt 0.175836 0.021746
vt 0.200102 0.015245
vt 0.224913 0.011315
vt 0.250000 0.010000
vt 0.275087 0.011315
vt 0.347617 0.030749
vt 0.299899 0.015245
vt 0.324164 0.021746
vt 0.370000 0.042154
vt 0.391069 0.055836
vt 0.410591 0.071645
vt 0.428355 0.089409
vt 0.444164 0.108932
vt 0.478254 0.175836
vt 0.457846 0.130000
vt 0.469251 0.152383
vt 0.484755 0.200101
vt 0.488685 0.224913
vt 0.490000 0.250000
vt 0.488685 0.275087
vt 0.484755 0.299899
vt 0.478254 0.324164
vt 0.469251 0.347617
vt 0.457846 0.370000
vt 0.444164 0.391068
vt 0.428355 0.410591
vt 0.410591 0.428355
vt 0.370000 0.457846
vt 0.347617 0.469251
vt 0.324164 0.478254
vt 0.000000 1.000000
vt 0.724912 0.488685
vt 0.750000 0.490000
vt 0.824164 0.478254
vt 0.775087 0.488685
vt 0.799899 0.484755
vt 0.847617 0.469251
vt 0.870000 0.457846
vt 0.891068 0.444164
vt 0.928355 0.410591
vt 0.944164 0.391068
vt 0.957846 0.370000
vt 0.969251 0.347617
vt 0.978254 0.324164
vt 0.984755 0.299899
vt 0.988685 0.275087
vt 0.990000 0.250000
vt 0.988685 0.224913
vt 0.984755 0.200101
vt 0.978254 0.175836
vt 0.969251 0.152383
vt 0.957846 0.130000
vt 0.944164 0.108932
vt 0.928355 0.089409
vt 0.891069 0.055836
vt 0.870000 0.042154
vt 0.847617 0.030749
vt 0.824164 0.021746
vt 0.799899 0.015245
vt 0.775087 0.011315
vt 0.750000 0.010000
vt 0.724913 0.011315
vt 0.700101 0.015245
vt 0.675836 0.021746
vt 0.652384 0.030749
vt 0.630000 0.042154
vt 0.608932 0.055836
vt 0.589409 0.071645
vt 0.571646 0.089408
vt 0.555836 0.108931
vt 0.542154 0.130000
vt 0.515245 0.200101
vt 0.530749 0.152383
vt 0.521747 0.175835
vt 0.511315 0.224913
vt 0.510000 0.249999
vt 0.511315 0.275086
vt 0.515244 0.299898
vt 0.521746 0.324163
vt 0.530749 0.347616
vt 0.542153 0.369999
vt 0.555835 0.391068
vt 0.571645 0.410591
vt 0.589408 0.428354
vt 0.608931 0.444164
vt 0.652382 0.469251
vt 0.675835 0.478253
vt 0.700100 0.484755
vn 0.0000 0.6955 -0.7185
vn 0.0751 -0.6955 -0.7146
vn 0.0000 -0.6955 -0.7185
vn 0.0751 0.6955 -0.7146
vn 0.1494 -0.6955 -0.7028
vn 0.1494 0.6955 -0.7028
vn 0.2220 -0.6955 -0.6833
vn 0.2220 0.6955 -0.6833
vn 0.2922 -0.6955 -0.6564
vn 0.2922 0.6955 -0.6564
vn 0.3592 -0.6955 -0.6222
vn 0.3592 0.6955 -0.6222
vn 0.4223 -0.6955 -0.5813
vn 0.4223 0.6955 -0.5813
vn 0.4808 -0.6955 -0.5340
vn 0.4808 0.6955 -0.5340
vn 0.5340 -0.6955 -0.4808
vn 0.5340 0.6955 -0.4808
vn 0.5813 -0.6955 -0.4223
vn 0.5813 0.6955 -0.4223
vn 0.6222 -0.6955 -0.3592
vn 0.6222 0.6955 -0.3592
vn 0.6564 -0.6955 -0.2922
vn 0.6564 0.6955 -0.2922
vn 0.6833 -0.6955 -0.2220
vn 0.6833 0.6955 -0.2220
vn 0.7028 -0.6955 -0.1494
vn 0.7028 0.6955 -0.1494
vn 0.7146 -0.6955 -0.0751
vn 0.7146 0.6955 -0.0751
vn 0.7185 -0.6955 0.0000
vn 0.7185 0.6955 0.0000
vn 0.7146 -0.6955 0.0751
vn 0.7146 0.6955 0.0751
vn 0.7028 -0.6955 0.1494
vn 0.7028 0.6955 0.1494
vn 0.6833 -0.6955 0.2220
vn 0.6833 0.6955 0.2220
vn 0.6564 -0.6955 0.2922
vn 0.6564 0.6955 0.2922
vn 0.6222 -0.6955 0.3592
vn 0.6222 0.6955 0.3592
vn 0.5813 -0.6955 0.4223
vn 0.5813 0.6955 0.4223
vn 0.5340 -0.6955 0.4808
vn 0.5340 0.6955 0.4808
vn 0.4808 -0.6955 0.5340
vn 0.4808 0.6955 0.5340
vn 0.4223 -0.6955 0.5813
vn 0.4223 0.6955 0.5813
vn 0.3592 -0.6955 0.6222
vn 0.3592 0.6955 0.6222
vn 0.2922 -0.6955 0.6564
vn 0.2922 0.6955 0.6564
vn 0.2220 -0.6955 0.6833
vn 0.2220 0.6955 0.6833
vn 0.1494 -0.6955 0.7028
vn 0.1494 0.6955 0.7028
vn 0.0751 -0.6955 0.7146
vn 0.0751 0.6955 0.7146
vn 0.0000 -0.6955 0.7185
vn 0.0000 0.6955 0.7185
vn -0.0751 -0.6955 0.7146
vn -0.0751 0.6955 0.7146
vn -0.1494 -0.6955 0.7028
vn -0.1494 0.6955 0.7028
vn -0.2220 -0.6955 0.6833
vn -0.2220 0.6955 0.6833
vn -0.2922 -0.6955 0.6564
vn -0.2922 0.6955 0.6564
vn -0.3592 -0.6955 0.6222
vn -0.3592 0.6955 0.6222
vn -0.4223 -0.6955 0.5813
vn -0.4223 0.6955 0.5813
vn -0.4808 -0.6955 0.5340
vn -0.4808 0.6955 0.5340
vn -0.5340 -0.6955 0.4808
vn -0.5340 0.6955 0.4808
vn -0.5813 -0.6955 0.4223
vn -0.5813 0.6955 0.4223
vn -0.6222 -0.6955 0.3592
vn -0.6222 0.6955 0.3592
vn -0.6564 -0.6955 0.2922
vn -0.6564 0.6955 0.2922
vn -0.6833 -0.6955 0.2220
vn -0.6833 0.6955 0.2220
vn -0.7028 -0.6955 0.1494
vn -0.7028 0.6955 0.1494
vn -0.7146 -0.6955 0.0751
vn -0.7146 0.6955 0.0751
vn -0.7185 -0.6955 0.0000
vn -0.7185 0.6955 0.0000
vn -0.7146 -0.6955 -0.0751
vn -0.7146 0.6955 -0.0751
vn -0.7028 -0.6955 -0.1494
vn -0.7028 0.6955 -0.1494
vn -0.6833 -0.6955 -0.2220
vn -0.6833 0.6955 -0.2220
vn -0.6564 -0.6955 -0.2922
vn -0.6564 0.6955 -0.2922
vn -0.6222 -0.6955 -0.3592
vn -0.6222 0.6955 -0.3592
vn -0.5813 -0.6955 -0.4223
vn -0.5813 0.6955 -0.4223
vn -0.5340 -0.6955 -0.4808
vn -0.5340 0.6955 -0.4808
vn -0.4808 -0.6955 -0.5340
vn -0.4808 0.6955 -0.5340
vn -0.4223 -0.6955 -0.5813
vn -0.4223 0.6955 -0.5813
vn -0.3592 -0.6955 -0.6222
vn -0.3592 0.6955 -0.6222
vn -0.2922 -0.6955 -0.6564
vn -0.2922 0.6955 -0.6564
vn -0.2220 -0.6955 -0.6833
vn -0.2220 0.6955 -0.6833
vn -0.1494 -0.6955 -0.7028
vn -0.1494 0.6955 -0.7028
vn -0.0751 -0.6955 -0.7146
vn -0.0751 0.6955 -0.7146
s 1
f 2/1/1 3/2/2 1/3/3
f 4/4/4 5/5/5 3/2/2
f 6/6/6 7/7/7 5/5/5
f 8/8/8 9/9/9 7/7/7
f 10/10/10 11/11/11 9/9/9
f 12/12/12 13/13/13 11/11/11
f 14/14/14 15/15/15 13/13/13
f 16/16/16 17/17/17 15/15/15
f 18/18/18 19/19/19 17/17/17
f 20/20/20 21/21/21 19/19/19
f 22/22/22 23/23/23 21/21/21
f 24/24/24 25/25/25 23/23/23
f 26/26/26 27/27/27 25/25/25
f 28/28/28 29/29/29 27/27/27
f 30/30/30 31/31/31 29/29/29
f 32/32/32 33/33/33 31/31/31
f 34/34/34 35/35/35 33/33/33
f 36/36/36 37/37/37 35/35/35
f 38/38/38 39/39/39 37/37/37
f 40/40/40 41/41/41 39/39/39
f 42/42/42 43/43/43 41/41/41
f 44/44/44 45/45/45 43/43/43
f 46/46/46 47/47/47 45/45/45
f 48/48/48 49/49/49 47/47/47
f 50/50/50 51/51/51 49/49/49
f 52/52/52 53/53/53 51/51/51
f 54/54/54 55/55/55 53/53/53
f 56/56/56 57/57/57 55/55/55
f 58/58/58 59/59/59 57/57/57
f 60/60/60 61/61/61 59/59/59
f 62/62/62 63/63/63 61/61/61
f 64/64/64 65/65/65 63/63/63
f 66/66/66 67/67/67 65/65/65
f 68/68/68 69/69/69 67/67/67
f 70/70/70 71/71/71 69/69/69
f 72/72/72 73/73/73 71/71/71
f 74/74/74 75/75/75 73/73/73
f 76/76/76 77/77/77 75/75/75
f 78/78/78 79/79/79 77/77/77
f 80/80/80 81/81/81 79/79/79
f 82/82/82 83/83/83 81/81/81
f 84/84/84 85/85/85 83/83/83
f 86/86/86 87/87/87 85/85/85
f 88/88/88 89/89/89 87/87/87
f 90/90/90 91/91/91 89/89/89
f 92/92/92 93/93/93 91/91/91
f 94/94/94 95/95/95 93/93/93
f 96/96/96 97/97/97 95/95/95
f 98/98/98 99/99/99 97/97/97
f 100/100/100 101/101/101 99/99/99
f 102/102/102 103/103/103 101/101/101
f 104/104/104 105/105/105 103/103/103
f 106/106/106 107/107/107 105/105/105
f 108/108/108 109/109/109 107/107/107
f 110/110/110 111/111/111 109/109/109
f 112/112/112 113/113/113 111/111/111
f 114/114/114 115/115/115 113/113/113
f 116/116/116 117/117/117 115/115/115
f 14/118/14 110/119/110 78/120/78
f 118/121/118 119/122/119 117/117/117
f 120/123/120 1/124/3 119/122/119
f 111/125/111 15/126/15 47/127/47
f 2/1/1 4/4/4 3/2/2
f 4/4/4 6/6/6 5/5/5
f 6/6/6 8/8/8 7/7/7
f 8/8/8 10/10/10 9/9/9
f 10/10/10 12/12/12 11/11/11
f 12/12/12 14/14/14 13/13/13
f 14/14/14 16/16/16 15/15/15
f 16/16/16 18/18/18 17/17/17
f 18/18/18 20/20/20 19/19/19
f 20/20/20 22/22/22 21/21/21
f 22/22/22 24/24/24 23/23/23
f 24/24/24 26/26/26 25/25/25
f 26/26/26 28/28/28 27/27/27
f 28/28/28 30/30/30 29/29/29
f 30/30/30 32/32/32 31/31/31
f 32/32/32 34/34/34 33/33/33
f 34/34/34 36/36/36 35/35/35
f 36/36/36 38/38/38 37/37/37
f 38/38/38 40/40/40 39/39/39
f 40/40/40 42/42/42 41/41/41
f 42/42/42 44/44/44 43/43/43
f 44/44/44 46/46/46 45/45/45
f 46/46/46 48/48/48 47/47/47
f 48/48/48 50/50/50 49/49/49
f 50/50/50 52/52/52 51/51/51
f 52/52/52 54/54/54 53/53/53
f 54/54/54 56/56/56 55/55/55
f 56/56/56 58/58/58 57/57/57
f 58/58/58 60/60/60 59/59/59
f 60/60/60 62/62/62 61/61/61
f 62/62/62 64/64/64 63/63/63
f 64/64/64 66/66/66 65/65/65
f 66/66/66 68/68/68 67/67/67
f 68/68/68 70/70/70 69/69/69
f 70/70/70 72/72/72 71/71/71
f 72/72/72 74/74/74 73/73/73
f 74/74/74 76/76/76 75/75/75
f 76/76/76 78/78/78 77/77/77
f 78/78/78 80/80/80 79/79/79
f 80/80/80 82/82/82 81/81/81
f 82/82/82 84/84/84 83/83/83
f 84/84/84 86/86/86 85/85/85
f 86/86/86 88/88/88 87/87/87
f 88/88/88 90/90/90 89/89/89
f 90/90/90 92/92/92 91/91/91
f 92/92/92 94/94/94 93/93/93
f 94/94/94 96/96/96 95/95/95
f 96/96/96 98/98/98 97/97/97
f 98/98/98 100/100/100 99/99/99
f 100/100/100 102/102/102 101/101/101
f 102/102/102 104/104/104 103/103/103
f 104/104/104 106/106/106 105/105/105
f 106/106/106 108/108/108 107/107/107
f 108/108/108 110/110/110 109/109/109
f 110/110/110 112/112/112 111/111/111
f 112/112/112 114/114/114 113/113/113
f 114/114/114 116/116/116 115/115/115
f 116/116/116 118/121/118 117/117/117
f 6/128/6 4/129/4 2/130/1
f 2/130/1 120/131/120 118/132/118
f 118/132/118 116/133/116 114/134/114
f 114/134/114 112/135/112 110/119/110
f 110/119/110 108/136/108 106/137/106
f 106/137/106 104/138/104 102/139/102
f 102/139/102 100/140/100 98/141/98
f 98/141/98 96/142/96 102/139/102
f 96/142/96 94/143/94 102/139/102
f 94/143/94 92/144/92 90/145/90
f 90/145/90 88/146/88 94/143/94
f 88/146/88 86/147/86 94/143/94
f 86/147/86 84/148/84 78/120/78
f 84/148/84 82/149/82 78/120/78
f 82/149/82 80/150/80 78/120/78
f 78/120/78 76/151/76 74/152/74
f 74/152/74 72/153/72 78/120/78
f 72/153/72 70/154/70 78/120/78
f 70/154/70 68/155/68 66/156/66
f 66/156/66 64/157/64 62/158/62
f 62/158/62 60/159/60 54/160/54
f 60/159/60 58/161/58 54/160/54
f 58/161/58 56/162/56 54/160/54
f 54/160/54 52/163/52 50/164/50
f 50/164/50 48/165/48 54/160/54
f 48/165/48 46/166/46 54/160/54
f 46/166/46 44/167/44 38/168/38
f 44/167/44 42/169/42 38/168/38
f 42/169/42 40/170/40 38/168/38
f 38/168/38 36/171/36 34/172/34
f 34/172/34 32/173/32 38/168/38
f 32/173/32 30/174/30 38/168/38
f 30/174/30 28/175/28 26/176/26
f 26/176/26 24/177/24 22/178/22
f 22/178/22 20/179/20 14/118/14
f 20/179/20 18/180/18 14/118/14
f 18/180/18 16/181/16 14/118/14
f 14/118/14 12/182/12 10/183/10
f 10/183/10 8/184/8 6/128/6
f 6/128/6 2/130/1 118/132/118
f 118/132/118 114/134/114 110/119/110
f 110/119/110 106/137/106 102/139/102
f 70/154/70 66/156/66 78/120/78
f 66/156/66 62/158/62 78/120/78
f 30/174/30 26/176/26 14/118/14
f 26/176/26 22/178/22 14/118/14
f 14/118/14 10/183/10 110/119/110
f 10/183/10 6/128/6 110/119/110
f 6/128/6 118/132/118 110/119/110
f 110/119/110 102/139/102 94/143/94
f 94/143/94 86/147/86 78/120/78
f 62/158/62 54/160/54 46/166/46
f 46/166/46 38/168/38 14/118/14
f 38/168/38 30/174/30 14/118/14
f 110/119/110 94/143/94 78/120/78
f 78/120/78 62/158/62 14/118/14
f 62/158/62 46/166/46 14/118/14
f 118/121/118 120/123/120 119/122/119
f 120/123/120 2/185/1 1/124/3
f 119/186/119 1/187/3 7/188/7
f 1/187/3 3/189/2 7/188/7
f 3/189/2 5/190/5 7/188/7
f 7/188/7 9/191/9 11/192/11
f 11/192/11 13/193/13 15/126/15
f 15/126/15 17/194/17 19/195/19
f 19/195/19 21/196/21 23/197/23
f 23/197/23 25/198/25 27/199/27
f 27/199/27 29/200/29 31/201/31
f 31/201/31 33/202/33 35/203/35
f 35/203/35 37/204/37 31/201/31
f 37/204/37 39/205/39 31/201/31
f 39/205/39 41/206/41 43/207/43
f 43/207/43 45/208/45 47/127/47
f 47/127/47 49/209/49 51/210/51
f 51/210/51 53/211/53 47/127/47
f 53/211/53 55/212/55 47/127/47
f 55/212/55 57/213/57 59/214/59
f 59/214/59 61/215/61 63/216/63
f 63/216/63 65/217/65 67/218/67
f 67/218/67 69/219/69 71/220/71
f 71/220/71 73/221/73 75/222/75
f 75/222/75 77/223/77 71/220/71
f 77/223/77 79/224/79 71/220/71
f 79/224/79 81/225/81 87/226/87
f 81/225/81 83/227/83 87/226/87
f 83/227/83 85/228/85 87/226/87
f 87/226/87 89/229/89 91/230/91
f 91/230/91 93/231/93 95/232/95
f 95/232/95 97/233/97 99/234/99
f 99/234/99 101/235/101 103/236/103
f 103/236/103 105/237/105 107/238/107
f 107/238/107 109/239/109 103/236/103
f 109/239/109 111/125/111 103/236/103
f 111/125/111 113/240/113 115/241/115
f 115/241/115 117/242/117 111/125/111
f 117/242/117 119/186/119 111/125/111
f 7/188/7 11/192/11 119/186/119
f 11/192/11 15/126/15 119/186/119
f 15/126/15 19/195/19 31/201/31
f 19/195/19 23/197/23 31/201/31
f 23/197/23 27/199/27 31/201/31
f 39/205/39 43/207/43 31/201/31
f 43/207/43 47/127/47 31/201/31
f 55/212/55 59/214/59 47/127/47
f 59/214/59 63/216/63 47/127/47
f 63/216/63 67/218/67 79/224/79
f 67/218/67 71/220/71 79/224/79
f 87/226/87 91/230/91 95/232/95
f 95/232/95 99/234/99 111/125/111
f 99/234/99 103/236/103 111/125/111
f 79/224/79 87/226/87 95/232/95
f 111/125/111 119/186/119 15/126/15
f 15/126/15 31/201/31 47/127/47
f 47/127/47 63/216/63 79/224/79
f 79/224/79 95/232/95 47/127/47
f 95/232/95 111/125/111 47/127/47
