# Blender v2.91.0 OBJ File: ''
# www.blender.org
o Cone_Cone.001
v 0.496034 -1.068615 -0.538873
v 0.675699 0.601223 -0.115361
v -0.895347 -0.128032 -0.115361
v -0.092129 0.198475 -1.743468
vt 0.250000 0.490000
vt 0.250000 0.250000
vt 0.457846 0.130000
vt 0.750000 0.490000
vt 0.957846 0.130000
vt 0.542154 0.130000
vt 0.042154 0.130000
vn 0.9033 0.0116 -0.4289
vn 0.1189 -0.2561 0.9593
vn -0.4209 0.9067 -0.0258
vn -0.5919 -0.6825 -0.4289
s off
f 1/1/1 4/2/1 2/3/1
f 1/4/2 2/5/2 3/6/2
f 2/3/3 4/2/3 3/7/3
f 3/7/4 4/2/4 1/1/4
